<svg width="35" height="35" viewBox="0 0 35 35" fill="none" xmlns="http://www.w3.org/2000/svg">
<path d="M19.6875 4.13251H15.3125V10.9684C16.0291 10.7953 16.7629 10.7036 17.5 10.695C18.1672 10.695 18.8956 10.7869 19.6875 10.9684V4.13251ZM21.875 4.13251V11.64C22.7106 11.9506 23.6031 12.3378 24.5547 12.7994L25.8891 4.13251H21.875ZM13.125 4.13251H9.11312L10.4475 12.7994C11.3991 12.3378 12.2894 11.9506 13.125 11.64V4.13251ZM7.83781 1.94501H27.1622C27.3198 1.94507 27.4756 1.97921 27.6188 2.04509C27.7621 2.11098 27.8894 2.20705 27.992 2.32672C28.0946 2.44639 28.1702 2.58683 28.2135 2.73843C28.2568 2.89002 28.2668 3.04918 28.2428 3.20501L26.25 16.1638C22.3606 13.9763 19.4447 12.8825 17.5 12.8825C15.5553 12.8825 12.6394 13.9763 8.75 16.1638L6.75719 3.20501C6.73322 3.04918 6.74323 2.89002 6.78652 2.73843C6.82981 2.58683 6.90536 2.44639 7.00799 2.32672C7.11063 2.20705 7.23792 2.11098 7.38115 2.04509C7.52438 1.97921 7.68016 1.94507 7.83781 1.94501Z" fill="url(#paint0_linear_3_721)"/>
<path d="M13.125 4.13251H9.11312L10.4475 12.7994C11.3991 12.3378 12.2894 11.9506 13.125 11.64V4.13251Z" fill="url(#paint1_linear_3_721)"/>
<path d="M21.875 4.13251V11.64C22.7106 11.9506 23.6031 12.3378 24.5547 12.7994L25.8891 4.13251H21.875Z" fill="url(#paint2_linear_3_721)"/>
<path d="M19.6875 4.13251H15.3125V10.9684C16.0291 10.7953 16.7629 10.7036 17.5 10.695C18.1672 10.695 18.8956 10.7869 19.6875 10.9684V4.13251Z" fill="url(#paint3_linear_3_721)"/>
<path d="M17.5 30.3825C19.8206 30.3825 22.0462 29.4606 23.6872 27.8197C25.3281 26.1787 26.25 23.9532 26.25 21.6325C26.25 19.3119 25.3281 17.0863 23.6872 15.4453C22.0462 13.8044 19.8206 12.8825 17.5 12.8825C15.1794 12.8825 12.9538 13.8044 11.3128 15.4453C9.67187 17.0863 8.75 19.3119 8.75 21.6325C8.75 23.9532 9.67187 26.1787 11.3128 27.8197C12.9538 29.4606 15.1794 30.3825 17.5 30.3825ZM17.5 32.57C14.5992 32.57 11.8172 31.4177 9.76602 29.3665C7.71484 27.3153 6.5625 24.5333 6.5625 21.6325C6.5625 18.7317 7.71484 15.9497 9.76602 13.8985C11.8172 11.8473 14.5992 10.695 17.5 10.695C20.4008 10.695 23.1828 11.8473 25.234 13.8985C27.2852 15.9497 28.4375 18.7317 28.4375 21.6325C28.4375 24.5333 27.2852 27.3153 25.234 29.3665C23.1828 31.4177 20.4008 32.57 17.5 32.57Z" fill="url(#paint4_linear_3_721)"/>
<path d="M17.5 30.3825C19.8206 30.3825 22.0462 29.4606 23.6872 27.8197C25.3281 26.1787 26.25 23.9532 26.25 21.6325C26.25 19.3119 25.3281 17.0863 23.6872 15.4453C22.0462 13.8044 19.8206 12.8825 17.5 12.8825C15.1794 12.8825 12.9538 13.8044 11.3128 15.4453C9.67187 17.0863 8.75 19.3119 8.75 21.6325C8.75 23.9532 9.67187 26.1787 11.3128 27.8197C12.9538 29.4606 15.1794 30.3825 17.5 30.3825Z" fill="url(#paint5_linear_3_721)"/>
<path d="M19.5371 16.8591V26.7575H16.9258V19.2653H16.8711L14.6836 20.5778V18.3493L17.1309 16.8591H19.5371Z" fill="white"/>
<defs>
<linearGradient id="paint0_linear_3_721" x1="17.5" y1="1.94501" x2="17.5" y2="11.6575" gradientUnits="userSpaceOnUse">
<stop stop-color="#FF4D4D"/>
<stop offset="0.644706" stop-color="#E04747"/>
</linearGradient>
<linearGradient id="paint1_linear_3_721" x1="17.5" y1="1.94501" x2="17.5" y2="11.6575" gradientUnits="userSpaceOnUse">
<stop stop-color="#FF4D4D"/>
<stop offset="0.644706" stop-color="#E04747"/>
</linearGradient>
<linearGradient id="paint2_linear_3_721" x1="17.5" y1="1.94501" x2="17.5" y2="11.6575" gradientUnits="userSpaceOnUse">
<stop stop-color="#FF4D4D"/>
<stop offset="0.644706" stop-color="#E04747"/>
</linearGradient>
<linearGradient id="paint3_linear_3_721" x1="17.5" y1="1.94501" x2="17.5" y2="11.6575" gradientUnits="userSpaceOnUse">
<stop stop-color="#FF4D4D"/>
<stop offset="0.644706" stop-color="#E04747"/>
</linearGradient>
<linearGradient id="paint4_linear_3_721" x1="23.8" y1="9.55751" x2="10.5" y2="35.4575" gradientUnits="userSpaceOnUse">
<stop offset="0.037306" stop-color="#E9B83C"/>
<stop offset="0.265007" stop-color="#F3C653"/>
<stop offset="0.480007" stop-color="#E9B83C"/>
<stop offset="0.635007" stop-color="#F3C653"/>
<stop offset="1" stop-color="#C1972E"/>
</linearGradient>
<linearGradient id="paint5_linear_3_721" x1="23.8" y1="9.55751" x2="10.5" y2="35.4575" gradientUnits="userSpaceOnUse">
<stop offset="0.037306" stop-color="#E9B83C"/>
<stop offset="0.265007" stop-color="#F3C653"/>
<stop offset="0.480007" stop-color="#E9B83C"/>
<stop offset="0.635007" stop-color="#F3C653"/>
<stop offset="1" stop-color="#C1972E"/>
</linearGradient>
</defs>
</svg>
