<svg width="35" height="35" viewBox="0 0 35 35" fill="none" xmlns="http://www.w3.org/2000/svg">
<path d="M19.6875 4.375H15.3125V11.2109C16.0291 11.0378 16.7629 10.9461 17.5 10.9375C18.1672 10.9375 18.8956 11.0294 19.6875 11.2109V4.375ZM21.875 4.375V11.8825C22.7106 12.1931 23.6031 12.5803 24.5547 13.0419L25.8891 4.375H21.875ZM13.125 4.375H9.11312L10.4475 13.0419C11.3991 12.5803 12.2894 12.1931 13.125 11.8825V4.375ZM7.83781 2.1875H27.1622C27.3198 2.18756 27.4756 2.2217 27.6188 2.28759C27.7621 2.35347 27.8894 2.44954 27.992 2.56921C28.0946 2.68888 28.1702 2.82933 28.2135 2.98092C28.2568 3.13252 28.2668 3.29168 28.2428 3.4475L26.25 16.4062C22.3606 14.2188 19.4447 13.125 17.5 13.125C15.5553 13.125 12.6394 14.2188 8.75 16.4062L6.75719 3.4475C6.73322 3.29168 6.74323 3.13252 6.78652 2.98092C6.82981 2.82933 6.90536 2.68888 7.00799 2.56921C7.11063 2.44954 7.23792 2.35347 7.38115 2.28759C7.52438 2.2217 7.68016 2.18756 7.83781 2.1875Z" fill="url(#paint0_linear_6_1077)"/>
<path d="M13.125 4.375H9.11312L10.4475 13.0419C11.3991 12.5803 12.2894 12.1931 13.125 11.8825V4.375Z" fill="url(#paint1_linear_6_1077)"/>
<path d="M21.875 4.375V11.8825C22.7106 12.1931 23.6031 12.5803 24.5547 13.0419L25.8891 4.375H21.875Z" fill="url(#paint2_linear_6_1077)"/>
<path d="M19.6875 4.375H15.3125V11.2109C16.0291 11.0378 16.7629 10.9461 17.5 10.9375C18.1672 10.9375 18.8956 11.0294 19.6875 11.2109V4.375Z" fill="url(#paint3_linear_6_1077)"/>
<path d="M17.5 30.625C19.8206 30.625 22.0462 29.7031 23.6872 28.0622C25.3281 26.4212 26.25 24.1956 26.25 21.875C26.25 19.5544 25.3281 17.3288 23.6872 15.6878C22.0462 14.0469 19.8206 13.125 17.5 13.125C15.1794 13.125 12.9538 14.0469 11.3128 15.6878C9.67187 17.3288 8.75 19.5544 8.75 21.875C8.75 24.1956 9.67187 26.4212 11.3128 28.0622C12.9538 29.7031 15.1794 30.625 17.5 30.625ZM17.5 32.8125C14.5992 32.8125 11.8172 31.6602 9.76602 29.609C7.71484 27.5578 6.5625 24.7758 6.5625 21.875C6.5625 18.9742 7.71484 16.1922 9.76602 14.141C11.8172 12.0898 14.5992 10.9375 17.5 10.9375C20.4008 10.9375 23.1828 12.0898 25.234 14.141C27.2852 16.1922 28.4375 18.9742 28.4375 21.875C28.4375 24.7758 27.2852 27.5578 25.234 29.609C23.1828 31.6602 20.4008 32.8125 17.5 32.8125Z" fill="url(#paint4_linear_6_1077)"/>
<path d="M17.5 30.625C19.8206 30.625 22.0462 29.7031 23.6872 28.0622C25.3281 26.4212 26.25 24.1956 26.25 21.875C26.25 19.5544 25.3281 17.3288 23.6872 15.6878C22.0462 14.0469 19.8206 13.125 17.5 13.125C15.1794 13.125 12.9538 14.0469 11.3128 15.6878C9.67187 17.3288 8.75 19.5544 8.75 21.875C8.75 24.1956 9.67187 26.4212 11.3128 28.0622C12.9538 29.7031 15.1794 30.625 17.5 30.625Z" fill="url(#paint5_linear_6_1077)"/>
<path d="M17.4316 27.1367C15.1074 27.1367 13.4531 25.8379 13.4395 24.0195H16.0645C16.0781 24.6074 16.6523 25.0312 17.4453 25.0312C18.2246 25.0312 18.7715 24.5801 18.7715 23.9512C18.7715 23.3223 18.1562 22.8711 17.2402 22.8711H16.2422V21.0664H17.2402C18.0742 21.0664 18.6484 20.6289 18.6348 20C18.6484 19.3984 18.1562 18.9746 17.459 18.9746C16.6934 18.9746 16.1465 19.4121 16.1328 20.0273H13.6445C13.6582 18.2363 15.2441 16.9648 17.459 16.9648C19.6328 16.9648 21.1504 18.1816 21.1504 19.8359C21.1504 20.9434 20.3027 21.709 19.1406 21.832V21.9141C20.7129 22.0918 21.5195 22.9531 21.5195 24.1699C21.5195 25.9062 19.8379 27.1367 17.4316 27.1367Z" fill="white"/>
<defs>
<linearGradient id="paint0_linear_6_1077" x1="17.5" y1="2.1875" x2="17.5" y2="8.4" gradientUnits="userSpaceOnUse">
<stop stop-color="#FF4D4D"/>
<stop offset="1" stop-color="#E04747"/>
</linearGradient>
<linearGradient id="paint1_linear_6_1077" x1="17.5" y1="2.1875" x2="17.5" y2="8.4" gradientUnits="userSpaceOnUse">
<stop stop-color="#FF4D4D"/>
<stop offset="1" stop-color="#E04747"/>
</linearGradient>
<linearGradient id="paint2_linear_6_1077" x1="17.5" y1="2.1875" x2="17.5" y2="8.4" gradientUnits="userSpaceOnUse">
<stop stop-color="#FF4D4D"/>
<stop offset="1" stop-color="#E04747"/>
</linearGradient>
<linearGradient id="paint3_linear_6_1077" x1="17.5" y1="2.1875" x2="17.5" y2="8.4" gradientUnits="userSpaceOnUse">
<stop stop-color="#FF4D4D"/>
<stop offset="1" stop-color="#E04747"/>
</linearGradient>
<linearGradient id="paint4_linear_6_1077" x1="23.8" y1="9.8" x2="13.3" y2="32.2" gradientUnits="userSpaceOnUse">
<stop stop-color="#C18707"/>
<stop offset="0.217283" stop-color="#DEAA38"/>
<stop offset="0.580007" stop-color="#D3A53F"/>
<stop offset="0.775007" stop-color="#DEAA38"/>
<stop offset="1" stop-color="#C18707"/>
</linearGradient>
<linearGradient id="paint5_linear_6_1077" x1="23.8" y1="9.8" x2="13.3" y2="32.2" gradientUnits="userSpaceOnUse">
<stop stop-color="#C18707"/>
<stop offset="0.217283" stop-color="#DEAA38"/>
<stop offset="0.580007" stop-color="#D3A53F"/>
<stop offset="0.775007" stop-color="#DEAA38"/>
<stop offset="1" stop-color="#C18707"/>
</linearGradient>
</defs>
</svg>
