<svg width="35" height="35" viewBox="0 0 35 35" fill="none" xmlns="http://www.w3.org/2000/svg">
<path d="M19.6875 5.20422H15.3125V12.0402C16.0291 11.867 16.7629 11.7753 17.5 11.7667C18.1672 11.7667 18.8956 11.8586 19.6875 12.0402V5.20422ZM21.875 5.20422V12.7117C22.7106 13.0223 23.6031 13.4095 24.5547 13.8711L25.8891 5.20422H21.875ZM13.125 5.20422H9.11312L10.4475 13.8711C11.3991 13.4095 12.2894 13.0223 13.125 12.7117V5.20422ZM7.83781 3.01672H27.1622C27.3198 3.01678 27.4756 3.05093 27.6188 3.11681C27.7621 3.18269 27.8894 3.27876 27.992 3.39843C28.0946 3.5181 28.1702 3.65855 28.2135 3.81014C28.2568 3.96174 28.2668 4.1209 28.2428 4.27672L26.25 17.2355C22.3606 15.048 19.4447 13.9542 17.5 13.9542C15.5553 13.9542 12.6394 15.048 8.75 17.2355L6.75719 4.27672C6.73322 4.1209 6.74323 3.96174 6.78652 3.81014C6.82981 3.65855 6.90536 3.5181 7.00799 3.39843C7.11063 3.27876 7.23792 3.18269 7.38115 3.11681C7.52438 3.05093 7.68016 3.01678 7.83781 3.01672Z" fill="url(#paint0_linear_3_727)"/>
<path d="M13.125 5.20422H9.11312L10.4475 13.8711C11.3991 13.4095 12.2894 13.0223 13.125 12.7117V5.20422Z" fill="url(#paint1_linear_3_727)"/>
<path d="M21.875 5.20422V12.7117C22.7106 13.0223 23.6031 13.4095 24.5547 13.8711L25.8891 5.20422H21.875Z" fill="url(#paint2_linear_3_727)"/>
<path d="M19.6875 5.20422H15.3125V12.0402C16.0291 11.867 16.7629 11.7753 17.5 11.7667C18.1672 11.7667 18.8956 11.8586 19.6875 12.0402V5.20422Z" fill="url(#paint3_linear_3_727)"/>
<path d="M17.5 31.4542C19.8206 31.4542 22.0462 30.5324 23.6872 28.8914C25.3281 27.2505 26.25 25.0249 26.25 22.7042C26.25 20.3836 25.3281 18.158 23.6872 16.517C22.0462 14.8761 19.8206 13.9542 17.5 13.9542C15.1794 13.9542 12.9538 14.8761 11.3128 16.517C9.67187 18.158 8.75 20.3836 8.75 22.7042C8.75 25.0249 9.67187 27.2505 11.3128 28.8914C12.9538 30.5324 15.1794 31.4542 17.5 31.4542ZM17.5 33.6417C14.5992 33.6417 11.8172 32.4894 9.76602 30.4382C7.71484 28.387 6.5625 25.605 6.5625 22.7042C6.5625 19.8034 7.71484 17.0214 9.76602 14.9702C11.8172 12.9191 14.5992 11.7667 17.5 11.7667C20.4008 11.7667 23.1828 12.9191 25.234 14.9702C27.2852 17.0214 28.4375 19.8034 28.4375 22.7042C28.4375 25.605 27.2852 28.387 25.234 30.4382C23.1828 32.4894 20.4008 33.6417 17.5 33.6417Z" fill="url(#paint4_linear_3_727)"/>
<path d="M17.5 31.4542C19.8206 31.4542 22.0462 30.5324 23.6872 28.8914C25.3281 27.2505 26.25 25.0249 26.25 22.7042C26.25 20.3836 25.3281 18.158 23.6872 16.517C22.0462 14.8761 19.8206 13.9542 17.5 13.9542C15.1794 13.9542 12.9538 14.8761 11.3128 16.517C9.67187 18.158 8.75 20.3836 8.75 22.7042C8.75 25.0249 9.67187 27.2505 11.3128 28.8914C12.9538 30.5324 15.1794 31.4542 17.5 31.4542Z" fill="url(#paint5_linear_3_727)"/>
<path d="M13.7881 27.8292V25.9562L17.4658 22.8663C18.2178 22.2238 18.6826 21.7589 18.6826 21.048C18.6826 20.2823 18.1357 19.8038 17.3701 19.8038C16.6045 19.8038 16.085 20.2823 16.085 21.13H13.6104C13.6104 19.0656 15.1006 17.7941 17.3701 17.7941C19.708 17.7941 21.2119 18.9972 21.2119 20.8292C21.2119 21.9777 20.6377 22.9484 18.4092 24.8214L17.4111 25.6827V25.7374H21.3213V27.8292H13.7881Z" fill="white"/>
<defs>
<linearGradient id="paint0_linear_3_727" x1="17.5" y1="3.01672" x2="17.5" y2="15.5292" gradientUnits="userSpaceOnUse">
<stop stop-color="#FF4D4D"/>
<stop offset="0.699189" stop-color="#E04747"/>
</linearGradient>
<linearGradient id="paint1_linear_3_727" x1="17.5" y1="3.01672" x2="17.5" y2="15.5292" gradientUnits="userSpaceOnUse">
<stop stop-color="#FF4D4D"/>
<stop offset="0.699189" stop-color="#E04747"/>
</linearGradient>
<linearGradient id="paint2_linear_3_727" x1="17.5" y1="3.01672" x2="17.5" y2="15.5292" gradientUnits="userSpaceOnUse">
<stop stop-color="#FF4D4D"/>
<stop offset="0.699189" stop-color="#E04747"/>
</linearGradient>
<linearGradient id="paint3_linear_3_727" x1="17.5" y1="3.01672" x2="17.5" y2="15.5292" gradientUnits="userSpaceOnUse">
<stop stop-color="#FF4D4D"/>
<stop offset="0.699189" stop-color="#E04747"/>
</linearGradient>
<linearGradient id="paint4_linear_3_727" x1="23.8" y1="10.6292" x2="10.5" y2="36.5292" gradientUnits="userSpaceOnUse">
<stop stop-color="#A7A7A7"/>
<stop offset="0.242546" stop-color="#BEBEBE"/>
<stop offset="0.502601" stop-color="#ACACAC"/>
<stop offset="0.667768" stop-color="#BEBEBE"/>
<stop offset="1" stop-color="#A7A7A7"/>
</linearGradient>
<linearGradient id="paint5_linear_3_727" x1="23.8" y1="10.6292" x2="10.5" y2="36.5292" gradientUnits="userSpaceOnUse">
<stop stop-color="#A7A7A7"/>
<stop offset="0.242546" stop-color="#BEBEBE"/>
<stop offset="0.502601" stop-color="#ACACAC"/>
<stop offset="0.667768" stop-color="#BEBEBE"/>
<stop offset="1" stop-color="#A7A7A7"/>
</linearGradient>
</defs>
</svg>
