<svg width="20" height="20" viewBox="0 0 20 20" fill="none" xmlns="http://www.w3.org/2000/svg">
<g id="heart">
<g id="Vector">
<path fill-rule="evenodd" clip-rule="evenodd" d="M4.68667 3.68664C3.30417 4.31831 2.29167 5.82164 2.29167 7.61414C2.29167 9.44498 3.04167 10.8566 4.11501 12.0666C5.00084 13.0633 6.07251 13.89 7.11751 14.695C7.36639 14.8866 7.61223 15.0778 7.855 15.2683C8.29334 15.6141 8.68417 15.9166 9.06167 16.1375C9.43917 16.3583 9.74167 16.4583 10 16.4583C10.2583 16.4583 10.5617 16.3583 10.9383 16.1375C11.3158 15.9166 11.7067 15.6141 12.145 15.2683C12.3878 15.0772 12.6336 14.8864 12.8825 14.6958C12.8872 14.6922 12.8919 14.6886 12.8966 14.6849C13.9371 13.8817 15.0032 13.0588 15.885 12.0666C16.9592 10.8566 17.7083 9.44498 17.7083 7.61414C17.7083 5.82248 16.6958 4.31831 15.3133 3.68664C13.97 3.07248 12.165 3.23498 10.45 5.01748C10.3917 5.07796 10.3218 5.12608 10.2445 5.15894C10.1672 5.1918 10.084 5.20874 10 5.20874C9.91599 5.20874 9.83284 5.1918 9.75552 5.15894C9.67821 5.12608 9.60831 5.07796 9.55 5.01748C7.835 3.23498 6.03 3.07248 4.68667 3.68664ZM10 3.71664C8.07334 1.99164 5.91584 1.74998 4.16667 2.54914C2.32167 3.39498 1.04167 5.35498 1.04167 7.61498C1.04167 9.83581 1.96667 11.5308 3.18084 12.8975C4.1525 13.9916 5.34167 14.9075 6.3925 15.7158C6.63139 15.8991 6.86084 16.0775 7.08084 16.2508C7.50834 16.5875 7.96667 16.9458 8.43084 17.2175C8.895 17.4891 9.425 17.7091 10 17.7091C10.575 17.7091 11.105 17.4883 11.5692 17.2175C12.0342 16.9458 12.4917 16.5875 12.9192 16.2508C13.1392 16.0775 13.3686 15.8991 13.6075 15.7158C14.6575 14.9075 15.8475 13.9908 16.8192 12.8975C18.0333 11.5308 18.9583 9.83581 18.9583 7.61498C18.9583 5.35498 17.6792 3.39498 15.8333 2.55081C14.0842 1.75081 11.9267 1.99248 10 3.71664Z" fill="#FF4D4D"/>
<path d="M4.68667 3.68664C3.30417 4.31831 2.29167 5.82164 2.29167 7.61414C2.29167 9.44498 3.04167 10.8566 4.11501 12.0666C5.00084 13.0633 6.07251 13.89 7.11751 14.695C7.36639 14.8866 7.61223 15.0778 7.855 15.2683C8.29334 15.6141 8.68417 15.9166 9.06167 16.1375C9.43917 16.3583 9.74167 16.4583 10 16.4583C10.2583 16.4583 10.5617 16.3583 10.9383 16.1375C11.3158 15.9166 11.7067 15.6141 12.145 15.2683C12.3878 15.0772 12.6336 14.8864 12.8825 14.6958L12.8966 14.6849C13.9371 13.8817 15.0032 13.0588 15.885 12.0666C16.9592 10.8566 17.7083 9.44498 17.7083 7.61414C17.7083 5.82248 16.6958 4.31831 15.3133 3.68664C13.97 3.07248 12.165 3.23498 10.45 5.01748C10.3917 5.07796 10.3218 5.12608 10.2445 5.15894C10.1672 5.1918 10.084 5.20874 10 5.20874C9.91599 5.20874 9.83284 5.1918 9.75552 5.15894C9.67821 5.12608 9.60831 5.07796 9.55 5.01748C7.835 3.23498 6.03 3.07248 4.68667 3.68664Z" fill="#FF4D4D"/>
</g>
</g>
</svg>
